<svg xmlns="http://www.w3.org/2000/svg" viewBox="0 0 128 128" fill="#000"><rect x="0" y="0" width="84" height="34.5"/><rect x="0" y="34" width="43" height="1.5"/><rect x="98" y="34" width="30" height="1.5"/><rect x="0" y="35" width="43" height="24.5"/><rect x="85" y="35" width="43" height="24.5"/><rect x="0" y="59" width="43" height="2.5"/><rect x="84" y="59" width="44" height="2.5"/><rect x="0" y="61" width="43" height="1.5"/><rect x="84" y="61" width="43" height="1.5"/><rect x="0" y="62" width="43" height="2.5"/><rect x="83" y="62" width="44" height="2.5"/><rect x="0" y="64" width="43" height="1.5"/><rect x="82" y="64" width="45" height="1.5"/><rect x="0" y="65" width="43" height="2.5"/><rect x="81" y="65" width="45" height="2.5"/><rect x="0" y="67" width="43" height="1.5"/><rect x="80" y="67" width="46" height="1.5"/><rect x="0" y="68" width="43" height="1.5"/><rect x="78" y="68" width="47" height="1.5"/><rect x="0" y="69" width="43" height="1.5"/><rect x="77" y="69" width="48" height="1.5"/><rect x="0" y="70" width="43" height="1.5"/><rect x="75" y="70" width="50" height="1.5"/><rect x="0" y="71" width="43" height="1.5"/><rect x="73" y="71" width="51" height="1.5"/><rect x="0" y="72" width="43" height="1.5"/><rect x="71" y="72" width="53" height="1.5"/><rect x="0" y="73" width="43" height="1.5"/><rect x="68" y="73" width="55" height="1.5"/><rect x="0" y="74" width="42" height="1.5"/><rect x="63" y="74" width="59" height="1.5"/><rect x="43" y="75" width="79" height="1.5"/><rect x="43" y="76" width="78" height="1.5"/><rect x="43" y="77" width="77" height="2.5"/><rect x="43" y="79" width="76" height="1.5"/><rect x="43" y="80" width="75" height="1.5"/><rect x="43" y="81" width="74" height="1.5"/><rect x="43" y="82" width="73" height="1.5"/><rect x="43" y="83" width="71" height="1.5"/><rect x="43" y="84" width="70" height="1.5"/><rect x="43" y="85" width="69" height="1.5"/><rect x="43" y="86" width="68" height="1.5"/><rect x="43" y="87" width="66" height="1.5"/><rect x="43" y="88" width="65" height="1.5"/><rect x="43" y="89" width="63" height="1.5"/><rect x="43" y="90" width="61" height="1.5"/><rect x="43" y="91" width="59" height="1.5"/><rect x="43" y="92" width="57" height="1.5"/><rect x="43" y="93" width="55" height="1.5"/><rect x="43" y="94" width="52" height="1.5"/><rect x="43" y="95" width="50" height="1.5"/><rect x="43" y="96" width="47" height="1.5"/><rect x="43" y="97" width="44" height="2.5"/><rect x="43" y="99" width="45" height="1.5"/><rect x="43" y="100" width="46" height="1.5"/><rect x="43" y="101" width="47" height="1.5"/><rect x="43" y="102" width="48" height="1.5"/><rect x="43" y="103" width="49" height="1.5"/><rect x="44" y="104" width="49" height="1.5"/><rect x="45" y="105" width="49" height="1.5"/><rect x="46" y="106" width="49" height="1.5"/><rect x="47" y="107" width="49" height="1.5"/><rect x="48" y="108" width="49" height="1.5"/><rect x="49" y="109" width="49" height="1.5"/><rect x="50" y="110" width="49" height="1.5"/><rect x="50" y="111" width="50" height="1.5"/><rect x="51" y="112" width="50" height="1.5"/><rect x="52" y="113" width="49" height="1.5"/><rect x="53" y="114" width="49" height="1.5"/><rect x="54" y="115" width="49" height="1.5"/><rect x="55" y="116" width="49" height="1.5"/><rect x="56" y="117" width="49" height="1.5"/><rect x="57" y="118" width="49" height="1.5"/><rect x="58" y="119" width="49" height="1.5"/><rect x="59" y="120" width="49" height="1.5"/><rect x="59" y="121" width="50" height="1.5"/><rect x="60" y="122" width="50" height="1.5"/><rect x="61" y="123" width="50" height="1.5"/><rect x="62" y="124" width="50" height="1.5"/><rect x="63" y="125" width="50" height="1.5"/><rect x="64" y="126" width="50" height="1.5"/><rect x="65" y="127" width="50" height="1"/></svg>