<svg xmlns="http://www.w3.org/2000/svg" viewBox="0 0 96 96" fill="#000"><rect x="0" y="0" width="63" height="26.6"/><rect x="0" y="26" width="32" height="17.6"/><rect x="64" y="26" width="32" height="17.6"/><rect x="0" y="43" width="32" height="3.6"/><rect x="63" y="43" width="33" height="3.6"/><rect x="0" y="46" width="32" height="1.6"/><rect x="63" y="46" width="32" height="1.6"/><rect x="0" y="47" width="32" height="2.6"/><rect x="62" y="47" width="33" height="2.6"/><rect x="0" y="49" width="32" height="1.6"/><rect x="61" y="49" width="34" height="1.6"/><rect x="0" y="50" width="32" height="1.6"/><rect x="60" y="50" width="34" height="1.6"/><rect x="0" y="51" width="32" height="1.6"/><rect x="59" y="51" width="35" height="1.6"/><rect x="0" y="52" width="32" height="1.6"/><rect x="57" y="52" width="37" height="1.6"/><rect x="0" y="53" width="32" height="1.6"/><rect x="55" y="53" width="38" height="1.6"/><rect x="0" y="54" width="32" height="1.6"/><rect x="53" y="54" width="40" height="1.6"/><rect x="0" y="55" width="32" height="1.6"/><rect x="50" y="55" width="42" height="1.6"/><rect x="33" y="56" width="1" height="1.6"/><rect x="41" y="56" width="50" height="1.6"/><rect x="32" y="57" width="59" height="1.6"/><rect x="32" y="58" width="58" height="1.6"/><rect x="32" y="59" width="57" height="1.6"/><rect x="32" y="60" width="56" height="1.6"/><rect x="32" y="61" width="55" height="1.6"/><rect x="32" y="62" width="54" height="1.6"/><rect x="32" y="63" width="53" height="1.6"/><rect x="32" y="64" width="51" height="1.6"/><rect x="32" y="65" width="50" height="1.6"/><rect x="32" y="66" width="48" height="1.6"/><rect x="32" y="67" width="47" height="1.6"/><rect x="32" y="68" width="45" height="1.6"/><rect x="32" y="69" width="43" height="1.6"/><rect x="32" y="70" width="40" height="1.6"/><rect x="32" y="71" width="38" height="1.6"/><rect x="32" y="72" width="35" height="1.6"/><rect x="32" y="73" width="33" height="1.6"/><rect x="32" y="74" width="34" height="1.6"/><rect x="32" y="75" width="35" height="1.6"/><rect x="32" y="76" width="36" height="1.6"/><rect x="32" y="77" width="37" height="1.6"/><rect x="33" y="78" width="37" height="1.6"/><rect x="34" y="79" width="37" height="1.6"/><rect x="35" y="80" width="37" height="1.6"/><rect x="36" y="81" width="37" height="1.6"/><rect x="37" y="82" width="37" height="1.6"/><rect x="38" y="83" width="37" height="1.6"/><rect x="39" y="84" width="37" height="1.6"/><rect x="40" y="85" width="36" height="1.6"/><rect x="40" y="86" width="37" height="1.6"/><rect x="41" y="87" width="37" height="1.6"/><rect x="42" y="88" width="37" height="1.6"/><rect x="43" y="89" width="37" height="1.6"/><rect x="44" y="90" width="37" height="1.6"/><rect x="45" y="91" width="37" height="1.6"/><rect x="46" y="92" width="37" height="1.6"/><rect x="47" y="93" width="37" height="1.6"/><rect x="48" y="94" width="37" height="1.6"/><rect x="49" y="95" width="37" height="1"/></svg>