<svg xmlns="http://www.w3.org/2000/svg" viewBox="0 0 256 256" fill="#000"><rect x="0" y="0" width="169" height="68.5"/><rect x="0" y="68" width="86" height="1.5"/><rect x="0" y="69" width="85" height="45.5"/><rect x="170" y="69" width="86" height="45.5"/><rect x="0" y="114" width="85" height="4.5"/><rect x="169" y="114" width="87" height="4.5"/><rect x="0" y="118" width="85" height="2.5"/><rect x="169" y="118" width="86" height="2.5"/><rect x="0" y="120" width="85" height="3.5"/><rect x="168" y="120" width="87" height="3.5"/><rect x="0" y="123" width="85" height="1.5"/><rect x="167" y="123" width="88" height="1.5"/><rect x="0" y="124" width="85" height="1.5"/><rect x="167" y="124" width="87" height="1.5"/><rect x="0" y="125" width="85" height="2.5"/><rect x="166" y="125" width="88" height="2.5"/><rect x="0" y="127" width="85" height="2.5"/><rect x="165" y="127" width="89" height="2.5"/><rect x="0" y="129" width="85" height="1.5"/><rect x="164" y="129" width="89" height="1.5"/><rect x="0" y="130" width="85" height="1.5"/><rect x="163" y="130" width="90" height="1.5"/><rect x="0" y="131" width="85" height="1.5"/><rect x="162" y="131" width="91" height="1.5"/><rect x="0" y="132" width="85" height="1.5"/><rect x="161" y="132" width="92" height="1.5"/><rect x="0" y="133" width="85" height="1.5"/><rect x="161" y="133" width="91" height="1.5"/><rect x="0" y="134" width="85" height="1.5"/><rect x="160" y="134" width="92" height="1.5"/><rect x="0" y="135" width="85" height="1.5"/><rect x="158" y="135" width="94" height="1.5"/><rect x="0" y="136" width="85" height="1.5"/><rect x="157" y="136" width="94" height="1.5"/><rect x="0" y="137" width="85" height="1.5"/><rect x="156" y="137" width="95" height="1.5"/><rect x="0" y="138" width="85" height="1.5"/><rect x="155" y="138" width="95" height="1.5"/><rect x="0" y="139" width="85" height="1.5"/><rect x="153" y="139" width="97" height="1.5"/><rect x="0" y="140" width="85" height="1.5"/><rect x="152" y="140" width="97" height="1.5"/><rect x="0" y="141" width="85" height="1.5"/><rect x="150" y="141" width="99" height="1.5"/><rect x="0" y="142" width="85" height="1.5"/><rect x="148" y="142" width="101" height="1.5"/><rect x="0" y="143" width="85" height="1.5"/><rect x="146" y="143" width="102" height="1.5"/><rect x="0" y="144" width="85" height="1.5"/><rect x="143" y="144" width="105" height="1.5"/><rect x="0" y="145" width="85" height="1.5"/><rect x="141" y="145" width="106" height="1.5"/><rect x="0" y="146" width="85" height="1.5"/><rect x="138" y="146" width="108" height="1.5"/><rect x="0" y="147" width="85" height="1.5"/><rect x="134" y="147" width="112" height="1.5"/><rect x="0" y="148" width="85" height="1.5"/><rect x="129" y="148" width="116" height="1.5"/><rect x="123" y="149" width="122" height="1.5"/><rect x="111" y="150" width="133" height="1.5"/><rect x="86" y="151" width="157" height="2.5"/><rect x="86" y="153" width="156" height="1.5"/><rect x="86" y="154" width="155" height="1.5"/><rect x="86" y="155" width="154" height="1.5"/><rect x="86" y="156" width="153" height="2.5"/><rect x="86" y="158" width="152" height="1.5"/><rect x="86" y="159" width="151" height="1.5"/><rect x="86" y="160" width="150" height="1.5"/><rect x="86" y="161" width="149" height="1.5"/><rect x="86" y="162" width="148" height="1.5"/><rect x="86" y="163" width="147" height="1.5"/><rect x="86" y="164" width="146" height="1.5"/><rect x="86" y="165" width="145" height="1.5"/><rect x="86" y="166" width="143" height="1.5"/><rect x="86" y="167" width="142" height="1.5"/><rect x="86" y="168" width="141" height="1.5"/><rect x="86" y="169" width="140" height="1.5"/><rect x="86" y="170" width="139" height="1.5"/><rect x="86" y="171" width="137" height="1.5"/><rect x="86" y="172" width="136" height="1.5"/><rect x="86" y="173" width="134" height="1.5"/><rect x="86" y="174" width="133" height="1.5"/><rect x="86" y="175" width="131" height="1.5"/><rect x="86" y="176" width="130" height="1.5"/><rect x="86" y="177" width="128" height="1.5"/><rect x="86" y="178" width="127" height="1.5"/><rect x="86" y="179" width="125" height="1.5"/><rect x="86" y="180" width="123" height="1.5"/><rect x="86" y="181" width="121" height="1.5"/><rect x="86" y="182" width="119" height="1.5"/><rect x="86" y="183" width="117" height="1.5"/><rect x="86" y="184" width="115" height="1.5"/><rect x="86" y="185" width="113" height="1.5"/><rect x="86" y="186" width="111" height="1.5"/><rect x="86" y="187" width="109" height="1.5"/><rect x="86" y="188" width="106" height="1.5"/><rect x="86" y="189" width="104" height="1.5"/><rect x="86" y="190" width="101" height="1.5"/><rect x="86" y="191" width="98" height="1.5"/><rect x="86" y="192" width="95" height="1.5"/><rect x="86" y="193" width="92" height="1.5"/><rect x="86" y="194" width="88" height="1.5"/><rect x="86" y="195" width="87" height="1.5"/><rect x="86" y="196" width="89" height="2.5"/><rect x="86" y="198" width="90" height="1.5"/><rect x="86" y="199" width="91" height="1.5"/><rect x="86" y="200" width="92" height="1.5"/><rect x="86" y="201" width="93" height="1.5"/><rect x="86" y="202" width="94" height="1.5"/><rect x="86" y="203" width="95" height="1.5"/><rect x="86" y="204" width="96" height="1.5"/><rect x="86" y="205" width="97" height="1.5"/><rect x="86" y="206" width="98" height="1.5"/><rect x="87" y="207" width="98" height="1.5"/><rect x="88" y="208" width="98" height="1.5"/><rect x="89" y="209" width="98" height="1.5"/><rect x="90" y="210" width="98" height="1.5"/><rect x="91" y="211" width="98" height="2.5"/><rect x="92" y="213" width="98" height="1.5"/><rect x="93" y="214" width="98" height="1.5"/><rect x="94" y="215" width="98" height="1.5"/><rect x="95" y="216" width="98" height="1.5"/><rect x="96" y="217" width="98" height="1.5"/><rect x="97" y="218" width="98" height="1.5"/><rect x="98" y="219" width="98" height="1.5"/><rect x="99" y="220" width="98" height="1.5"/><rect x="100" y="221" width="98" height="1.5"/><rect x="100" y="222" width="99" height="1.5"/><rect x="101" y="223" width="99" height="1.5"/><rect x="102" y="224" width="99" height="1.5"/><rect x="103" y="225" width="99" height="1.5"/><rect x="104" y="226" width="99" height="1.5"/><rect x="105" y="227" width="98" height="1.5"/><rect x="106" y="228" width="98" height="1.5"/><rect x="107" y="229" width="98" height="1.5"/><rect x="108" y="230" width="98" height="1.5"/><rect x="109" y="231" width="98" height="1.5"/><rect x="109" y="232" width="99" height="1.5"/><rect x="110" y="233" width="99" height="1.5"/><rect x="111" y="234" width="99" height="1.5"/><rect x="112" y="235" width="99" height="1.5"/><rect x="113" y="236" width="99" height="1.5"/><rect x="114" y="237" width="99" height="1.5"/><rect x="115" y="238" width="99" height="1.5"/><rect x="116" y="239" width="99" height="1.5"/><rect x="117" y="240" width="99" height="1.5"/><rect x="118" y="241" width="99" height="2.5"/><rect x="119" y="243" width="99" height="1.5"/><rect x="120" y="244" width="99" height="1.5"/><rect x="121" y="245" width="99" height="1.5"/><rect x="122" y="246" width="99" height="1.5"/><rect x="123" y="247" width="99" height="1.5"/><rect x="124" y="248" width="99" height="1.5"/><rect x="125" y="249" width="99" height="1.5"/><rect x="126" y="250" width="99" height="1.5"/><rect x="127" y="251" width="99" height="1.5"/><rect x="128" y="252" width="99" height="1.5"/><rect x="128" y="253" width="100" height="1.5"/><rect x="129" y="254" width="100" height="1.5"/><rect x="130" y="255" width="100" height="1"/></svg>